<?xml version="1.0" standalone="no"?>
<!DOCTYPE svg PUBLIC "-//W3C//DTD SVG 20010904//EN"
 "http://www.w3.org/TR/2001/REC-SVG-20010904/DTD/svg10.dtd">
<svg version="1.0" xmlns="http://www.w3.org/2000/svg"
 width="1000.000000pt" height="1000.000000pt" viewBox="0 0 1000.000000 1000.000000"
 preserveAspectRatio="xMidYMid meet">
<metadata>
Created by potrace 1.14, written by Peter Selinger 2001-2017
</metadata>
<g transform="translate(0.000000,1000.000000) scale(0.100000,-0.100000)"
fill="#000000" stroke="none">
<path d="M4863 9323 c-127 -22 -223 -59 -380 -150 -189 -108 -225 -127 -299
-151 -88 -29 -146 -35 -384 -38 -227 -2 -268 -7 -391 -48 -130 -43 -248 -115
-350 -216 -47 -45 -133 -158 -151 -195 -5 -11 -14 -29 -21 -41 -151 -256 -200
-323 -297 -396 -30 -22 -171 -107 -300 -181 -208 -118 -379 -346 -430 -572
-20 -90 -22 -119 -25 -336 -3 -317 -14 -356 -172 -632 -143 -251 -179 -367
-176 -577 1 -88 29 -244 52 -295 5 -11 18 -38 27 -60 10 -22 54 -103 99 -180
156 -271 165 -303 170 -620 2 -126 6 -248 10 -270 30 -186 115 -355 244 -489
75 -78 131 -119 291 -211 265 -153 317 -202 446 -424 119 -203 164 -268 233
-336 l59 -58 -33 -91 c-78 -218 -437 -1206 -455 -1251 -91 -242 -94 -257 -60
-312 27 -45 65 -67 114 -66 41 0 59 7 275 109 62 30 115 54 117 54 2 0 54 24
116 54 370 177 425 199 466 191 73 -14 86 -32 215 -315 14 -30 47 -102 75
-160 27 -58 59 -125 70 -150 96 -211 145 -307 166 -328 35 -35 118 -42 164
-13 40 26 52 52 152 331 45 124 99 272 120 330 21 58 66 182 100 275 33 94 64
177 67 185 3 8 7 20 8 25 2 6 14 39 28 75 14 36 60 162 103 280 42 118 79 217
81 219 1 2 6 2 9 -2 5 -5 87 -225 216 -582 211 -582 383 -1048 398 -1080 48
-100 192 -103 242 -5 19 39 121 254 161 340 13 30 44 96 67 145 23 50 71 153
107 230 71 154 83 171 130 191 43 19 66 18 116 -5 113 -51 140 -63 242 -111
61 -29 135 -63 165 -77 70 -32 164 -76 315 -148 131 -62 177 -70 234 -41 20
11 39 32 51 58 25 55 19 91 -40 233 -7 17 -18 48 -25 70 -7 22 -28 83 -48 135
-19 52 -62 172 -96 265 -34 94 -66 179 -71 190 -5 11 -69 186 -142 389 l-134
368 67 68 c53 54 179 233 179 254 0 10 128 213 150 240 65 76 135 131 254 202
242 142 278 167 355 243 43 42 94 102 114 133 33 52 108 194 106 200 0 2 2 10
5 18 37 106 47 201 51 468 3 237 11 277 80 417 46 94 86 166 102 187 27 35 93
172 116 240 23 69 31 105 43 188 6 41 5 172 -1 214 -22 154 -52 231 -185 466
-60 107 -110 202 -110 210 0 9 -4 20 -8 26 -23 25 -36 141 -38 334 -3 269 -8
311 -52 455 -14 47 -57 136 -88 186 -104 162 -195 238 -476 399 -135 78 -225
151 -281 228 -19 26 -74 115 -122 197 -100 173 -140 229 -218 304 -104 100
-214 166 -357 213 -101 34 -162 41 -385 43 -229 3 -288 9 -381 40 -74 25 -83
29 -249 125 -175 101 -191 109 -281 139 -136 45 -291 57 -431 34z"/>
</g>
</svg>
